<svg width="520" height="520" viewBox="0 0 520 520" fill="none" xmlns="http://www.w3.org/2000/svg">
  <defs>
    <linearGradient id="body" x1="128" y1="96" x2="392" y2="420" gradientUnits="userSpaceOnUse">
      <stop stop-color="#FFE69A"/>
      <stop offset="1" stop-color="#F7B733"/>
    </linearGradient>
    <linearGradient id="apron" x1="175" y1="214" x2="345" y2="388" gradientUnits="userSpaceOnUse">
      <stop stop-color="#1D6FD6"/>
      <stop offset="1" stop-color="#0C4FA8"/>
    </linearGradient>
  </defs>
  <circle cx="260" cy="260" r="218" fill="#FFF8EF"/>
  <ellipse cx="260" cy="244" rx="142" ry="154" fill="url(#body)" stroke="#DA9D23" stroke-width="14"/>
  <ellipse cx="260" cy="230" rx="112" ry="114" fill="#FFE28A"/>
  <circle cx="214" cy="224" r="14" fill="#2B1A12"/>
  <circle cx="306" cy="224" r="14" fill="#2B1A12"/>
  <path d="M210 292C231 315 287 316 310 292" stroke="#7A3A19" stroke-width="15" stroke-linecap="round"/>
  <path d="M158 202C130 184 128 144 154 122" stroke="#DA9D23" stroke-width="18" stroke-linecap="round"/>
  <path d="M362 202C390 184 392 144 366 122" stroke="#DA9D23" stroke-width="18" stroke-linecap="round"/>
  <path d="M182 296H338V382C338 408 317 430 291 430H229C203 430 182 408 182 382V296Z" fill="url(#apron)"/>
  <path d="M182 307C203 319 226 325 260 325C294 325 317 319 338 307" stroke="#8CC7FF" stroke-width="10" stroke-linecap="round"/>
  <circle cx="239" cy="358" r="12" fill="#FFF0D0"/>
  <circle cx="282" cy="358" r="12" fill="#FFF0D0"/>
  <path d="M162 328C128 325 115 294 118 269" stroke="#DA9D23" stroke-width="16" stroke-linecap="round"/>
  <path d="M358 328C392 325 405 294 402 269" stroke="#DA9D23" stroke-width="16" stroke-linecap="round"/>
  <circle cx="260" cy="79" r="23" fill="#FF8C42"/>
  <path d="M260 61V26" stroke="#7A3A19" stroke-width="12" stroke-linecap="round"/>
</svg>
